# xmcd
#
# Track frame offsets: 
#        150
#        13300
#        24860
#        39832
#        54567
#        68330
#        79857
#        93942
#        104647
#        118412
#        132610
#        146865
#        161257
#        175372
#
# Disc length: 2506 seconds
#
# Revision: 3
# Processed by: cddbd v1.5.2PL0 Copyright (c) Steve Scherf et al.
# Submitted via: ExactAudioCopy v0.99pb4
#
DISCID=bd09c80e
DTITLE=Various Artist - Cattle Call: Early  Cowboy Music and its Roots
DYEAR=1996
DGENRE=Folk
TTITLE0=Carl T. Sprague - When the Work's All Done this Fall
TTITLE1=The Sons Of The Pioneers - I'll Take You Home Again, Kathleen
TTITLE2=Jimmie Rodgers - When the Cactus Is in Bloom
TTITLE3=Tex Ritter - Rye Whiskey
TTITLE4=Tex Owens - Cattle Call
TTITLE5=The Girls Of The Golden West - My Love Is a Rider (Bucking Bro
TTITLE5=nco)
TTITLE6=Ray Whitley - Blue Yodel Blues
TTITLE7=Rarson Robinson's Buckaroos - Carry Me Back to the Lone Prairi
TTITLE7=e
TTITLE8=Trio Los Panchos - La Cucaracha - La Adelita
TTITLE9=Patsy Montana - I Want to Be a Cowboy's Sweetheart
TTITLE10=Jules Verne Allen - Little Joe the Wrangler
TTITLE11=Ken Maynard - Lone Star Trail
TTITLE12=Powder River Jack And Kitty Lee - Tying a Knot in the Devil's
TTITLE12=Tail
TTITLE13=The Sons Of The Pioneers - Way Out There
EXTD=YEAR: 1996
EXTT0=Carl T. Sprague
EXTT1=The Sons of the Pioneers
EXTT2=Johnny Rogers
EXTT3=Tex Ritter
EXTT4=Tex Owens
EXTT5=The Girls of the Golden West
EXTT6=Ray Whitley
EXTT7=Carson Robison's Buckaroos
EXTT8=Trio Los Panchos
EXTT9=Patsy Montana
EXTT10=Jules Verne ALLEN
EXTT11=Ken Maynard
EXTT12=Powder River Jack and Kitty Lee
EXTT13=The Sons of the Pioneers
PLAYORDER=
